<mxfile host="app.diagrams.net" modified="2024-04-12T03:07:01.459Z" agent="Mozilla/5.0 (Windows NT 10.0; Win64; x64) AppleWebKit/537.36 (KHTML, like Gecko) Chrome/123.0.0.0 Safari/537.36" etag="oZ9qd0L906jL04q4CyYN" version="24.2.3" type="device" pages="6">
  <diagram id="C5RBs43oDa-KdzZeNtuy" name="Page-1">
    <mxGraphModel dx="493" dy="592" grid="1" gridSize="10" guides="1" tooltips="1" connect="1" arrows="1" fold="1" page="1" pageScale="1" pageWidth="827" pageHeight="1169" math="0" shadow="0">
      <root>
        <mxCell id="WIyWlLk6GJQsqaUBKTNV-0" />
        <mxCell id="WIyWlLk6GJQsqaUBKTNV-1" parent="WIyWlLk6GJQsqaUBKTNV-0" />
        <mxCell id="ZwOCafU4-U8rnSMs1IN1-15" style="edgeStyle=orthogonalEdgeStyle;rounded=0;orthogonalLoop=1;jettySize=auto;html=1;entryX=0.5;entryY=0;entryDx=0;entryDy=0;" parent="WIyWlLk6GJQsqaUBKTNV-1" source="ZwOCafU4-U8rnSMs1IN1-0" target="ZwOCafU4-U8rnSMs1IN1-1" edge="1">
          <mxGeometry relative="1" as="geometry" />
        </mxCell>
        <mxCell id="ZwOCafU4-U8rnSMs1IN1-0" value="start" style="ellipse;whiteSpace=wrap;html=1;" parent="WIyWlLk6GJQsqaUBKTNV-1" vertex="1">
          <mxGeometry x="200" y="80" width="80" height="50" as="geometry" />
        </mxCell>
        <mxCell id="ZwOCafU4-U8rnSMs1IN1-16" style="edgeStyle=orthogonalEdgeStyle;rounded=0;orthogonalLoop=1;jettySize=auto;html=1;entryX=0.5;entryY=0;entryDx=0;entryDy=0;" parent="WIyWlLk6GJQsqaUBKTNV-1" source="ZwOCafU4-U8rnSMs1IN1-1" target="ZwOCafU4-U8rnSMs1IN1-2" edge="1">
          <mxGeometry relative="1" as="geometry" />
        </mxCell>
        <mxCell id="ZwOCafU4-U8rnSMs1IN1-1" value="input num" style="shape=parallelogram;perimeter=parallelogramPerimeter;whiteSpace=wrap;html=1;fixedSize=1;" parent="WIyWlLk6GJQsqaUBKTNV-1" vertex="1">
          <mxGeometry x="180" y="150" width="120" height="60" as="geometry" />
        </mxCell>
        <mxCell id="ZwOCafU4-U8rnSMs1IN1-5" style="edgeStyle=orthogonalEdgeStyle;rounded=0;orthogonalLoop=1;jettySize=auto;html=1;entryX=1;entryY=0.5;entryDx=0;entryDy=0;" parent="WIyWlLk6GJQsqaUBKTNV-1" source="ZwOCafU4-U8rnSMs1IN1-2" target="ZwOCafU4-U8rnSMs1IN1-4" edge="1">
          <mxGeometry relative="1" as="geometry" />
        </mxCell>
        <mxCell id="ZwOCafU4-U8rnSMs1IN1-7" style="edgeStyle=orthogonalEdgeStyle;rounded=0;orthogonalLoop=1;jettySize=auto;html=1;entryX=0;entryY=0.5;entryDx=0;entryDy=0;" parent="WIyWlLk6GJQsqaUBKTNV-1" source="ZwOCafU4-U8rnSMs1IN1-2" target="ZwOCafU4-U8rnSMs1IN1-3" edge="1">
          <mxGeometry relative="1" as="geometry" />
        </mxCell>
        <mxCell id="ZwOCafU4-U8rnSMs1IN1-2" value="if num%2==0" style="rhombus;whiteSpace=wrap;html=1;" parent="WIyWlLk6GJQsqaUBKTNV-1" vertex="1">
          <mxGeometry x="200" y="290" width="80" height="80" as="geometry" />
        </mxCell>
        <mxCell id="ZwOCafU4-U8rnSMs1IN1-13" style="edgeStyle=orthogonalEdgeStyle;rounded=0;orthogonalLoop=1;jettySize=auto;html=1;" parent="WIyWlLk6GJQsqaUBKTNV-1" source="ZwOCafU4-U8rnSMs1IN1-3" target="ZwOCafU4-U8rnSMs1IN1-10" edge="1">
          <mxGeometry relative="1" as="geometry">
            <mxPoint x="420" y="460" as="targetPoint" />
            <Array as="points">
              <mxPoint x="420" y="440" />
            </Array>
          </mxGeometry>
        </mxCell>
        <mxCell id="ZwOCafU4-U8rnSMs1IN1-3" value="result=num*num" style="rounded=0;whiteSpace=wrap;html=1;" parent="WIyWlLk6GJQsqaUBKTNV-1" vertex="1">
          <mxGeometry x="360" y="300" width="120" height="60" as="geometry" />
        </mxCell>
        <mxCell id="ZwOCafU4-U8rnSMs1IN1-4" value="result=num*num*num" style="rounded=0;whiteSpace=wrap;html=1;" parent="WIyWlLk6GJQsqaUBKTNV-1" vertex="1">
          <mxGeometry y="300" width="120" height="60" as="geometry" />
        </mxCell>
        <mxCell id="ZwOCafU4-U8rnSMs1IN1-8" value="yes" style="text;html=1;align=center;verticalAlign=middle;resizable=0;points=[];autosize=1;strokeColor=none;fillColor=none;" parent="WIyWlLk6GJQsqaUBKTNV-1" vertex="1">
          <mxGeometry x="280" y="300" width="40" height="30" as="geometry" />
        </mxCell>
        <mxCell id="ZwOCafU4-U8rnSMs1IN1-9" value="no" style="text;html=1;align=center;verticalAlign=middle;resizable=0;points=[];autosize=1;strokeColor=none;fillColor=none;" parent="WIyWlLk6GJQsqaUBKTNV-1" vertex="1">
          <mxGeometry x="160" y="300" width="40" height="30" as="geometry" />
        </mxCell>
        <mxCell id="ZwOCafU4-U8rnSMs1IN1-17" style="edgeStyle=orthogonalEdgeStyle;rounded=0;orthogonalLoop=1;jettySize=auto;html=1;exitX=0.5;exitY=1;exitDx=0;exitDy=0;entryX=0.5;entryY=0;entryDx=0;entryDy=0;" parent="WIyWlLk6GJQsqaUBKTNV-1" source="ZwOCafU4-U8rnSMs1IN1-10" target="ZwOCafU4-U8rnSMs1IN1-14" edge="1">
          <mxGeometry relative="1" as="geometry" />
        </mxCell>
        <mxCell id="ZwOCafU4-U8rnSMs1IN1-10" value="print result" style="shape=parallelogram;perimeter=parallelogramPerimeter;whiteSpace=wrap;html=1;fixedSize=1;" parent="WIyWlLk6GJQsqaUBKTNV-1" vertex="1">
          <mxGeometry x="180" y="420" width="120" height="60" as="geometry" />
        </mxCell>
        <mxCell id="ZwOCafU4-U8rnSMs1IN1-12" value="" style="endArrow=classic;html=1;rounded=0;exitX=0.5;exitY=1;exitDx=0;exitDy=0;entryX=0.078;entryY=0.384;entryDx=0;entryDy=0;entryPerimeter=0;" parent="WIyWlLk6GJQsqaUBKTNV-1" source="ZwOCafU4-U8rnSMs1IN1-4" target="ZwOCafU4-U8rnSMs1IN1-10" edge="1">
          <mxGeometry width="50" height="50" relative="1" as="geometry">
            <mxPoint x="70" y="460" as="sourcePoint" />
            <mxPoint x="120" y="410" as="targetPoint" />
            <Array as="points">
              <mxPoint x="60" y="440" />
            </Array>
          </mxGeometry>
        </mxCell>
        <mxCell id="ZwOCafU4-U8rnSMs1IN1-14" value="end" style="ellipse;whiteSpace=wrap;html=1;" parent="WIyWlLk6GJQsqaUBKTNV-1" vertex="1">
          <mxGeometry x="195" y="525" width="90" height="60" as="geometry" />
        </mxCell>
      </root>
    </mxGraphModel>
  </diagram>
  <diagram id="HUIOq6CZNcqXMxI5ItZq" name="Page-2">
    <mxGraphModel dx="1265" dy="743" grid="1" gridSize="10" guides="1" tooltips="1" connect="1" arrows="1" fold="1" page="1" pageScale="1" pageWidth="827" pageHeight="1169" math="0" shadow="0">
      <root>
        <mxCell id="0" />
        <mxCell id="1" parent="0" />
        <mxCell id="e5pkMZojTkerpOAP8UTX-11" style="edgeStyle=orthogonalEdgeStyle;rounded=0;orthogonalLoop=1;jettySize=auto;html=1;entryX=0.5;entryY=0;entryDx=0;entryDy=0;" edge="1" parent="1" source="IgLMncVLQrHKztwNwtI4-1" target="6UjtNZM6XkuqwCSG5fpr-1">
          <mxGeometry relative="1" as="geometry" />
        </mxCell>
        <mxCell id="IgLMncVLQrHKztwNwtI4-1" value="start" style="ellipse;whiteSpace=wrap;html=1;" vertex="1" parent="1">
          <mxGeometry x="340" y="50" width="120" height="80" as="geometry" />
        </mxCell>
        <mxCell id="e5pkMZojTkerpOAP8UTX-10" style="edgeStyle=orthogonalEdgeStyle;rounded=0;orthogonalLoop=1;jettySize=auto;html=1;entryX=0.5;entryY=0;entryDx=0;entryDy=0;" edge="1" parent="1" source="6UjtNZM6XkuqwCSG5fpr-1" target="e5pkMZojTkerpOAP8UTX-1">
          <mxGeometry relative="1" as="geometry" />
        </mxCell>
        <mxCell id="6UjtNZM6XkuqwCSG5fpr-1" value="Input username&lt;br&gt;Input password" style="shape=parallelogram;perimeter=parallelogramPerimeter;whiteSpace=wrap;html=1;fixedSize=1;" vertex="1" parent="1">
          <mxGeometry x="340" y="190" width="120" height="60" as="geometry" />
        </mxCell>
        <mxCell id="e5pkMZojTkerpOAP8UTX-9" style="edgeStyle=orthogonalEdgeStyle;rounded=0;orthogonalLoop=1;jettySize=auto;html=1;entryX=0.5;entryY=0;entryDx=0;entryDy=0;" edge="1" parent="1" source="e5pkMZojTkerpOAP8UTX-1" target="e5pkMZojTkerpOAP8UTX-2">
          <mxGeometry relative="1" as="geometry" />
        </mxCell>
        <mxCell id="e5pkMZojTkerpOAP8UTX-1" value="Validate username password" style="rounded=0;whiteSpace=wrap;html=1;" vertex="1" parent="1">
          <mxGeometry x="340" y="300" width="120" height="60" as="geometry" />
        </mxCell>
        <mxCell id="e5pkMZojTkerpOAP8UTX-13" style="edgeStyle=orthogonalEdgeStyle;rounded=0;orthogonalLoop=1;jettySize=auto;html=1;entryX=0.5;entryY=0;entryDx=0;entryDy=0;" edge="1" parent="1" source="e5pkMZojTkerpOAP8UTX-2" target="e5pkMZojTkerpOAP8UTX-12">
          <mxGeometry relative="1" as="geometry" />
        </mxCell>
        <mxCell id="e5pkMZojTkerpOAP8UTX-21" style="edgeStyle=orthogonalEdgeStyle;rounded=0;orthogonalLoop=1;jettySize=auto;html=1;entryX=1;entryY=0.5;entryDx=0;entryDy=0;" edge="1" parent="1" source="e5pkMZojTkerpOAP8UTX-2" target="e5pkMZojTkerpOAP8UTX-19">
          <mxGeometry relative="1" as="geometry" />
        </mxCell>
        <mxCell id="e5pkMZojTkerpOAP8UTX-2" value="if valid and num of attempts&amp;lt;3" style="rhombus;whiteSpace=wrap;html=1;" vertex="1" parent="1">
          <mxGeometry x="350" y="410" width="100" height="90" as="geometry" />
        </mxCell>
        <mxCell id="e5pkMZojTkerpOAP8UTX-27" style="edgeStyle=orthogonalEdgeStyle;rounded=0;orthogonalLoop=1;jettySize=auto;html=1;entryX=0;entryY=0.5;entryDx=0;entryDy=0;" edge="1" parent="1" source="e5pkMZojTkerpOAP8UTX-3" target="e5pkMZojTkerpOAP8UTX-1">
          <mxGeometry relative="1" as="geometry" />
        </mxCell>
        <mxCell id="e5pkMZojTkerpOAP8UTX-3" value="Redirect to login page&lt;br&gt;num of attempts+1" style="rounded=0;whiteSpace=wrap;html=1;" vertex="1" parent="1">
          <mxGeometry x="131" y="300" width="120" height="60" as="geometry" />
        </mxCell>
        <mxCell id="e5pkMZojTkerpOAP8UTX-16" style="edgeStyle=orthogonalEdgeStyle;rounded=0;orthogonalLoop=1;jettySize=auto;html=1;entryX=0.5;entryY=0;entryDx=0;entryDy=0;" edge="1" parent="1" source="e5pkMZojTkerpOAP8UTX-12" target="e5pkMZojTkerpOAP8UTX-14">
          <mxGeometry relative="1" as="geometry" />
        </mxCell>
        <mxCell id="e5pkMZojTkerpOAP8UTX-12" value="Redirect to Home page" style="rounded=0;whiteSpace=wrap;html=1;" vertex="1" parent="1">
          <mxGeometry x="340" y="555" width="120" height="60" as="geometry" />
        </mxCell>
        <mxCell id="e5pkMZojTkerpOAP8UTX-14" value="End" style="ellipse;whiteSpace=wrap;html=1;" vertex="1" parent="1">
          <mxGeometry x="355" y="690" width="90" height="60" as="geometry" />
        </mxCell>
        <mxCell id="e5pkMZojTkerpOAP8UTX-17" value="no" style="text;html=1;align=center;verticalAlign=middle;resizable=0;points=[];autosize=1;strokeColor=none;fillColor=none;" vertex="1" parent="1">
          <mxGeometry x="310" y="430" width="40" height="30" as="geometry" />
        </mxCell>
        <mxCell id="e5pkMZojTkerpOAP8UTX-18" value="yes" style="text;html=1;align=center;verticalAlign=middle;resizable=0;points=[];autosize=1;strokeColor=none;fillColor=none;" vertex="1" parent="1">
          <mxGeometry x="405" y="500" width="40" height="30" as="geometry" />
        </mxCell>
        <mxCell id="e5pkMZojTkerpOAP8UTX-22" style="edgeStyle=orthogonalEdgeStyle;rounded=0;orthogonalLoop=1;jettySize=auto;html=1;" edge="1" parent="1" source="e5pkMZojTkerpOAP8UTX-19" target="e5pkMZojTkerpOAP8UTX-23">
          <mxGeometry relative="1" as="geometry">
            <mxPoint x="191" y="530" as="targetPoint" />
          </mxGeometry>
        </mxCell>
        <mxCell id="e5pkMZojTkerpOAP8UTX-26" style="edgeStyle=orthogonalEdgeStyle;rounded=0;orthogonalLoop=1;jettySize=auto;html=1;entryX=0.5;entryY=1;entryDx=0;entryDy=0;" edge="1" parent="1" source="e5pkMZojTkerpOAP8UTX-19" target="e5pkMZojTkerpOAP8UTX-3">
          <mxGeometry relative="1" as="geometry" />
        </mxCell>
        <mxCell id="e5pkMZojTkerpOAP8UTX-19" value="if num of attempts &amp;gt;3" style="rhombus;whiteSpace=wrap;html=1;" vertex="1" parent="1">
          <mxGeometry x="151" y="415" width="80" height="80" as="geometry" />
        </mxCell>
        <mxCell id="e5pkMZojTkerpOAP8UTX-28" style="edgeStyle=orthogonalEdgeStyle;rounded=0;orthogonalLoop=1;jettySize=auto;html=1;entryX=0;entryY=0.5;entryDx=0;entryDy=0;" edge="1" parent="1" source="e5pkMZojTkerpOAP8UTX-23" target="e5pkMZojTkerpOAP8UTX-14">
          <mxGeometry relative="1" as="geometry">
            <Array as="points">
              <mxPoint x="190" y="720" />
            </Array>
          </mxGeometry>
        </mxCell>
        <mxCell id="e5pkMZojTkerpOAP8UTX-23" value="lock account" style="rounded=0;whiteSpace=wrap;html=1;" vertex="1" parent="1">
          <mxGeometry x="131" y="555" width="120" height="60" as="geometry" />
        </mxCell>
        <mxCell id="e5pkMZojTkerpOAP8UTX-24" value="yes" style="text;html=1;align=center;verticalAlign=middle;resizable=0;points=[];autosize=1;strokeColor=none;fillColor=none;" vertex="1" parent="1">
          <mxGeometry x="191" y="495" width="40" height="30" as="geometry" />
        </mxCell>
        <mxCell id="e5pkMZojTkerpOAP8UTX-25" value="no" style="text;html=1;align=center;verticalAlign=middle;resizable=0;points=[];autosize=1;strokeColor=none;fillColor=none;" vertex="1" parent="1">
          <mxGeometry x="191" y="385" width="40" height="30" as="geometry" />
        </mxCell>
      </root>
    </mxGraphModel>
  </diagram>
  <diagram id="NKUKjzEq4uRuG7Rvbq5H" name="Page-3">
    <mxGraphModel dx="1012" dy="594" grid="1" gridSize="10" guides="1" tooltips="1" connect="1" arrows="1" fold="1" page="1" pageScale="1" pageWidth="827" pageHeight="1169" math="0" shadow="0">
      <root>
        <mxCell id="0" />
        <mxCell id="1" parent="0" />
      </root>
    </mxGraphModel>
  </diagram>
  <diagram id="AMAWmAxukvAKy1N-6UsN" name="Page-4">
    <mxGraphModel dx="633" dy="1540" grid="1" gridSize="10" guides="1" tooltips="1" connect="1" arrows="1" fold="1" page="1" pageScale="1" pageWidth="827" pageHeight="1169" math="0" shadow="0">
      <root>
        <mxCell id="0" />
        <mxCell id="1" parent="0" />
        <mxCell id="8BrKTU6qyErL06aVK3WZ-7" style="edgeStyle=orthogonalEdgeStyle;rounded=0;orthogonalLoop=1;jettySize=auto;html=1;entryX=0.5;entryY=0;entryDx=0;entryDy=0;" edge="1" parent="1" source="tTreH6vGMn1aJL9PHoy9-1" target="x9jkfD1oN0tdRl0gozCn-1">
          <mxGeometry relative="1" as="geometry" />
        </mxCell>
        <mxCell id="tTreH6vGMn1aJL9PHoy9-1" value="start" style="ellipse;whiteSpace=wrap;html=1;" vertex="1" parent="1">
          <mxGeometry x="360" y="-20" width="80" height="60" as="geometry" />
        </mxCell>
        <mxCell id="8BrKTU6qyErL06aVK3WZ-10" style="edgeStyle=orthogonalEdgeStyle;rounded=0;orthogonalLoop=1;jettySize=auto;html=1;entryX=0.5;entryY=0;entryDx=0;entryDy=0;" edge="1" parent="1" source="tTreH6vGMn1aJL9PHoy9-2" target="zT4eZeLsVkMKOIO36fTJ-1">
          <mxGeometry relative="1" as="geometry" />
        </mxCell>
        <mxCell id="tTreH6vGMn1aJL9PHoy9-2" value="flag=true" style="rounded=0;whiteSpace=wrap;html=1;" vertex="1" parent="1">
          <mxGeometry x="340" y="410" width="120" height="60" as="geometry" />
        </mxCell>
        <mxCell id="11j-C74QKbHn4UtOkhIZ-6" style="edgeStyle=orthogonalEdgeStyle;rounded=0;orthogonalLoop=1;jettySize=auto;html=1;entryX=0.5;entryY=0;entryDx=0;entryDy=0;" edge="1" parent="1" source="x9jkfD1oN0tdRl0gozCn-1" target="11j-C74QKbHn4UtOkhIZ-1">
          <mxGeometry relative="1" as="geometry" />
        </mxCell>
        <mxCell id="x9jkfD1oN0tdRl0gozCn-1" value="input key" style="shape=parallelogram;perimeter=parallelogramPerimeter;whiteSpace=wrap;html=1;fixedSize=1;" vertex="1" parent="1">
          <mxGeometry x="340" y="100" width="120" height="60" as="geometry" />
        </mxCell>
        <mxCell id="8BrKTU6qyErL06aVK3WZ-9" style="edgeStyle=orthogonalEdgeStyle;rounded=0;orthogonalLoop=1;jettySize=auto;html=1;entryX=0.5;entryY=0;entryDx=0;entryDy=0;" edge="1" parent="1" source="Zd3HH-qVNPmyV9FvRA1T-1" target="tTreH6vGMn1aJL9PHoy9-2">
          <mxGeometry relative="1" as="geometry" />
        </mxCell>
        <mxCell id="11j-C74QKbHn4UtOkhIZ-4" style="edgeStyle=orthogonalEdgeStyle;rounded=0;orthogonalLoop=1;jettySize=auto;html=1;entryX=0;entryY=0.5;entryDx=0;entryDy=0;" edge="1" parent="1" source="Zd3HH-qVNPmyV9FvRA1T-1" target="11j-C74QKbHn4UtOkhIZ-1">
          <mxGeometry relative="1" as="geometry">
            <mxPoint x="260" y="230" as="targetPoint" />
            <Array as="points">
              <mxPoint x="250" y="340" />
              <mxPoint x="250" y="230" />
            </Array>
          </mxGeometry>
        </mxCell>
        <mxCell id="Zd3HH-qVNPmyV9FvRA1T-1" value="if key= arr[i]" style="rhombus;whiteSpace=wrap;html=1;" vertex="1" parent="1">
          <mxGeometry x="360" y="300" width="80" height="80" as="geometry" />
        </mxCell>
        <mxCell id="8BrKTU6qyErL06aVK3WZ-3" style="edgeStyle=orthogonalEdgeStyle;rounded=0;orthogonalLoop=1;jettySize=auto;html=1;entryX=0.5;entryY=0;entryDx=0;entryDy=0;" edge="1" parent="1" source="zT4eZeLsVkMKOIO36fTJ-1" target="8BrKTU6qyErL06aVK3WZ-1">
          <mxGeometry relative="1" as="geometry">
            <Array as="points">
              <mxPoint x="320" y="545" />
            </Array>
          </mxGeometry>
        </mxCell>
        <mxCell id="zT4eZeLsVkMKOIO36fTJ-1" value="if flag=true" style="rhombus;whiteSpace=wrap;html=1;" vertex="1" parent="1">
          <mxGeometry x="360" y="505" width="80" height="80" as="geometry" />
        </mxCell>
        <mxCell id="11j-C74QKbHn4UtOkhIZ-9" style="edgeStyle=orthogonalEdgeStyle;rounded=0;orthogonalLoop=1;jettySize=auto;html=1;entryX=0;entryY=0.5;entryDx=0;entryDy=0;" edge="1" parent="1" source="8BrKTU6qyErL06aVK3WZ-1" target="11j-C74QKbHn4UtOkhIZ-8">
          <mxGeometry relative="1" as="geometry" />
        </mxCell>
        <mxCell id="8BrKTU6qyErL06aVK3WZ-1" value="print key found&amp;nbsp;" style="shape=parallelogram;perimeter=parallelogramPerimeter;whiteSpace=wrap;html=1;fixedSize=1;" vertex="1" parent="1">
          <mxGeometry x="260" y="640" width="120" height="60" as="geometry" />
        </mxCell>
        <mxCell id="11j-C74QKbHn4UtOkhIZ-10" style="edgeStyle=orthogonalEdgeStyle;rounded=0;orthogonalLoop=1;jettySize=auto;html=1;entryX=1;entryY=0.5;entryDx=0;entryDy=0;" edge="1" parent="1" source="8BrKTU6qyErL06aVK3WZ-2" target="11j-C74QKbHn4UtOkhIZ-8">
          <mxGeometry relative="1" as="geometry" />
        </mxCell>
        <mxCell id="8BrKTU6qyErL06aVK3WZ-2" value="print key not found&amp;nbsp;" style="shape=parallelogram;perimeter=parallelogramPerimeter;whiteSpace=wrap;html=1;fixedSize=1;" vertex="1" parent="1">
          <mxGeometry x="420" y="640" width="120" height="60" as="geometry" />
        </mxCell>
        <mxCell id="8BrKTU6qyErL06aVK3WZ-5" value="no" style="text;html=1;align=center;verticalAlign=middle;resizable=0;points=[];autosize=1;strokeColor=none;fillColor=none;" vertex="1" parent="1">
          <mxGeometry x="400" y="580" width="40" height="30" as="geometry" />
        </mxCell>
        <mxCell id="8BrKTU6qyErL06aVK3WZ-6" value="yes" style="text;html=1;align=center;verticalAlign=middle;resizable=0;points=[];autosize=1;strokeColor=none;fillColor=none;" vertex="1" parent="1">
          <mxGeometry x="320" y="518" width="40" height="30" as="geometry" />
        </mxCell>
        <mxCell id="11j-C74QKbHn4UtOkhIZ-2" style="edgeStyle=orthogonalEdgeStyle;rounded=0;orthogonalLoop=1;jettySize=auto;html=1;entryX=0.5;entryY=0;entryDx=0;entryDy=0;" edge="1" parent="1" source="11j-C74QKbHn4UtOkhIZ-1" target="Zd3HH-qVNPmyV9FvRA1T-1">
          <mxGeometry relative="1" as="geometry" />
        </mxCell>
        <mxCell id="11j-C74QKbHn4UtOkhIZ-1" value="if i&amp;lt;n" style="rhombus;whiteSpace=wrap;html=1;" vertex="1" parent="1">
          <mxGeometry x="360" y="190" width="80" height="80" as="geometry" />
        </mxCell>
        <mxCell id="11j-C74QKbHn4UtOkhIZ-3" value="yes" style="text;html=1;align=center;verticalAlign=middle;resizable=0;points=[];autosize=1;strokeColor=none;fillColor=none;" vertex="1" parent="1">
          <mxGeometry x="390" y="378" width="40" height="30" as="geometry" />
        </mxCell>
        <mxCell id="11j-C74QKbHn4UtOkhIZ-5" value="i=i+1" style="rounded=0;whiteSpace=wrap;html=1;" vertex="1" parent="1">
          <mxGeometry x="190" y="250" width="120" height="60" as="geometry" />
        </mxCell>
        <mxCell id="11j-C74QKbHn4UtOkhIZ-7" value="no" style="text;html=1;align=center;verticalAlign=middle;resizable=0;points=[];autosize=1;strokeColor=none;fillColor=none;" vertex="1" parent="1">
          <mxGeometry x="320" y="310" width="40" height="30" as="geometry" />
        </mxCell>
        <mxCell id="11j-C74QKbHn4UtOkhIZ-8" value="end" style="ellipse;whiteSpace=wrap;html=1;" vertex="1" parent="1">
          <mxGeometry x="355" y="770" width="90" height="60" as="geometry" />
        </mxCell>
        <mxCell id="11j-C74QKbHn4UtOkhIZ-11" style="edgeStyle=orthogonalEdgeStyle;rounded=0;orthogonalLoop=1;jettySize=auto;html=1;entryX=1;entryY=0.5;entryDx=0;entryDy=0;exitX=1;exitY=0.5;exitDx=0;exitDy=0;" edge="1" parent="1" source="11j-C74QKbHn4UtOkhIZ-1" target="zT4eZeLsVkMKOIO36fTJ-1">
          <mxGeometry relative="1" as="geometry">
            <mxPoint x="510.0000000000001" y="260.34" as="sourcePoint" />
            <mxPoint x="537.5200000000001" y="525.66" as="targetPoint" />
            <Array as="points">
              <mxPoint x="520" y="230" />
              <mxPoint x="520" y="545" />
            </Array>
          </mxGeometry>
        </mxCell>
        <mxCell id="11j-C74QKbHn4UtOkhIZ-12" style="edgeStyle=orthogonalEdgeStyle;rounded=0;orthogonalLoop=1;jettySize=auto;html=1;entryX=0.546;entryY=-0.023;entryDx=0;entryDy=0;entryPerimeter=0;" edge="1" parent="1" source="zT4eZeLsVkMKOIO36fTJ-1" target="8BrKTU6qyErL06aVK3WZ-2">
          <mxGeometry relative="1" as="geometry" />
        </mxCell>
      </root>
    </mxGraphModel>
  </diagram>
  <diagram id="0TQIKhxy574T6HlqfIc9" name="Page-5">
    <mxGraphModel dx="1192" dy="566" grid="1" gridSize="10" guides="1" tooltips="1" connect="1" arrows="1" fold="1" page="1" pageScale="1" pageWidth="827" pageHeight="1169" math="0" shadow="0">
      <root>
        <mxCell id="0" />
        <mxCell id="1" parent="0" />
        <mxCell id="HSh_3bDgoXvW6hLrNLQY-21" style="edgeStyle=orthogonalEdgeStyle;rounded=0;orthogonalLoop=1;jettySize=auto;html=1;entryX=0.5;entryY=0;entryDx=0;entryDy=0;" edge="1" parent="1" source="HSh_3bDgoXvW6hLrNLQY-1" target="HSh_3bDgoXvW6hLrNLQY-2">
          <mxGeometry relative="1" as="geometry" />
        </mxCell>
        <mxCell id="HSh_3bDgoXvW6hLrNLQY-1" value="Start" style="ellipse;whiteSpace=wrap;html=1;" vertex="1" parent="1">
          <mxGeometry x="340" y="390" width="80" height="50" as="geometry" />
        </mxCell>
        <mxCell id="HSh_3bDgoXvW6hLrNLQY-22" style="edgeStyle=orthogonalEdgeStyle;rounded=0;orthogonalLoop=1;jettySize=auto;html=1;entryX=0.5;entryY=0;entryDx=0;entryDy=0;" edge="1" parent="1" source="HSh_3bDgoXvW6hLrNLQY-2" target="HSh_3bDgoXvW6hLrNLQY-3">
          <mxGeometry relative="1" as="geometry" />
        </mxCell>
        <mxCell id="HSh_3bDgoXvW6hLrNLQY-2" value="i=1, j=0" style="rounded=0;whiteSpace=wrap;html=1;" vertex="1" parent="1">
          <mxGeometry x="330" y="500" width="100" height="40" as="geometry" />
        </mxCell>
        <mxCell id="HSh_3bDgoXvW6hLrNLQY-7" style="edgeStyle=orthogonalEdgeStyle;rounded=0;orthogonalLoop=1;jettySize=auto;html=1;entryX=0.5;entryY=0;entryDx=0;entryDy=0;" edge="1" parent="1" source="HSh_3bDgoXvW6hLrNLQY-3" target="HSh_3bDgoXvW6hLrNLQY-4">
          <mxGeometry relative="1" as="geometry" />
        </mxCell>
        <mxCell id="AM_lv66stDftdhcHO-cy-1" style="edgeStyle=orthogonalEdgeStyle;rounded=0;orthogonalLoop=1;jettySize=auto;html=1;entryX=1;entryY=0.5;entryDx=0;entryDy=0;" edge="1" parent="1" source="HSh_3bDgoXvW6hLrNLQY-3" target="HSh_3bDgoXvW6hLrNLQY-25">
          <mxGeometry relative="1" as="geometry" />
        </mxCell>
        <mxCell id="HSh_3bDgoXvW6hLrNLQY-3" value="i&amp;lt;n" style="rhombus;whiteSpace=wrap;html=1;" vertex="1" parent="1">
          <mxGeometry x="340" y="600" width="80" height="80" as="geometry" />
        </mxCell>
        <mxCell id="HSh_3bDgoXvW6hLrNLQY-11" style="edgeStyle=orthogonalEdgeStyle;rounded=0;orthogonalLoop=1;jettySize=auto;html=1;entryX=0.5;entryY=0;entryDx=0;entryDy=0;" edge="1" parent="1" source="HSh_3bDgoXvW6hLrNLQY-4" target="HSh_3bDgoXvW6hLrNLQY-5">
          <mxGeometry relative="1" as="geometry" />
        </mxCell>
        <mxCell id="HSh_3bDgoXvW6hLrNLQY-18" style="edgeStyle=orthogonalEdgeStyle;rounded=0;orthogonalLoop=1;jettySize=auto;html=1;entryX=0.5;entryY=1;entryDx=0;entryDy=0;" edge="1" parent="1" source="HSh_3bDgoXvW6hLrNLQY-4" target="HSh_3bDgoXvW6hLrNLQY-17">
          <mxGeometry relative="1" as="geometry" />
        </mxCell>
        <mxCell id="HSh_3bDgoXvW6hLrNLQY-4" value="j&amp;lt;n-2" style="rhombus;whiteSpace=wrap;html=1;" vertex="1" parent="1">
          <mxGeometry x="340" y="720" width="80" height="80" as="geometry" />
        </mxCell>
        <mxCell id="HSh_3bDgoXvW6hLrNLQY-12" style="edgeStyle=orthogonalEdgeStyle;rounded=0;orthogonalLoop=1;jettySize=auto;html=1;entryX=0.5;entryY=0;entryDx=0;entryDy=0;" edge="1" parent="1" source="HSh_3bDgoXvW6hLrNLQY-5" target="HSh_3bDgoXvW6hLrNLQY-6">
          <mxGeometry relative="1" as="geometry" />
        </mxCell>
        <mxCell id="HSh_3bDgoXvW6hLrNLQY-15" style="edgeStyle=orthogonalEdgeStyle;rounded=0;orthogonalLoop=1;jettySize=auto;html=1;entryX=0.5;entryY=1;entryDx=0;entryDy=0;" edge="1" parent="1" source="HSh_3bDgoXvW6hLrNLQY-5" target="HSh_3bDgoXvW6hLrNLQY-14">
          <mxGeometry relative="1" as="geometry" />
        </mxCell>
        <mxCell id="HSh_3bDgoXvW6hLrNLQY-5" value="arr[j]&amp;gt;arr[j+1]" style="rhombus;whiteSpace=wrap;html=1;" vertex="1" parent="1">
          <mxGeometry x="340" y="840" width="80" height="80" as="geometry" />
        </mxCell>
        <mxCell id="HSh_3bDgoXvW6hLrNLQY-20" style="edgeStyle=orthogonalEdgeStyle;rounded=0;orthogonalLoop=1;jettySize=auto;html=1;entryX=0.5;entryY=1;entryDx=0;entryDy=0;" edge="1" parent="1" source="HSh_3bDgoXvW6hLrNLQY-6" target="HSh_3bDgoXvW6hLrNLQY-14">
          <mxGeometry relative="1" as="geometry" />
        </mxCell>
        <mxCell id="HSh_3bDgoXvW6hLrNLQY-6" value="swap arr[j],arr[j+1]" style="rounded=0;whiteSpace=wrap;html=1;" vertex="1" parent="1">
          <mxGeometry x="320" y="960" width="120" height="60" as="geometry" />
        </mxCell>
        <mxCell id="HSh_3bDgoXvW6hLrNLQY-9" value="no" style="text;html=1;align=center;verticalAlign=middle;resizable=0;points=[];autosize=1;strokeColor=none;fillColor=none;" vertex="1" parent="1">
          <mxGeometry x="420" y="728" width="40" height="30" as="geometry" />
        </mxCell>
        <mxCell id="HSh_3bDgoXvW6hLrNLQY-10" value="yes" style="text;html=1;align=center;verticalAlign=middle;resizable=0;points=[];autosize=1;strokeColor=none;fillColor=none;" vertex="1" parent="1">
          <mxGeometry x="340" y="680" width="40" height="30" as="geometry" />
        </mxCell>
        <mxCell id="HSh_3bDgoXvW6hLrNLQY-16" style="edgeStyle=orthogonalEdgeStyle;rounded=0;orthogonalLoop=1;jettySize=auto;html=1;entryX=0;entryY=0.5;entryDx=0;entryDy=0;" edge="1" parent="1" source="HSh_3bDgoXvW6hLrNLQY-14" target="HSh_3bDgoXvW6hLrNLQY-4">
          <mxGeometry relative="1" as="geometry" />
        </mxCell>
        <mxCell id="HSh_3bDgoXvW6hLrNLQY-14" value="j++" style="rounded=0;whiteSpace=wrap;html=1;" vertex="1" parent="1">
          <mxGeometry x="230" y="740" width="80" height="40" as="geometry" />
        </mxCell>
        <mxCell id="HSh_3bDgoXvW6hLrNLQY-19" style="edgeStyle=orthogonalEdgeStyle;rounded=0;orthogonalLoop=1;jettySize=auto;html=1;entryX=1;entryY=0.5;entryDx=0;entryDy=0;" edge="1" parent="1" source="HSh_3bDgoXvW6hLrNLQY-17" target="HSh_3bDgoXvW6hLrNLQY-3">
          <mxGeometry relative="1" as="geometry">
            <Array as="points">
              <mxPoint x="490" y="640" />
            </Array>
          </mxGeometry>
        </mxCell>
        <mxCell id="HSh_3bDgoXvW6hLrNLQY-17" value="i++" style="rounded=0;whiteSpace=wrap;html=1;" vertex="1" parent="1">
          <mxGeometry x="460" y="670" width="60" height="30" as="geometry" />
        </mxCell>
        <mxCell id="HSh_3bDgoXvW6hLrNLQY-23" value="no" style="text;html=1;align=center;verticalAlign=middle;resizable=0;points=[];autosize=1;strokeColor=none;fillColor=none;" vertex="1" parent="1">
          <mxGeometry x="300" y="848" width="40" height="30" as="geometry" />
        </mxCell>
        <mxCell id="HSh_3bDgoXvW6hLrNLQY-24" value="yes" style="text;html=1;align=center;verticalAlign=middle;resizable=0;points=[];autosize=1;strokeColor=none;fillColor=none;" vertex="1" parent="1">
          <mxGeometry x="380" y="920" width="40" height="30" as="geometry" />
        </mxCell>
        <mxCell id="HSh_3bDgoXvW6hLrNLQY-25" value="end" style="ellipse;whiteSpace=wrap;html=1;" vertex="1" parent="1">
          <mxGeometry x="180" y="615" width="80" height="50" as="geometry" />
        </mxCell>
        <mxCell id="AM_lv66stDftdhcHO-cy-2" value="no" style="text;html=1;align=center;verticalAlign=middle;resizable=0;points=[];autosize=1;strokeColor=none;fillColor=none;" vertex="1" parent="1">
          <mxGeometry x="300" y="615" width="40" height="30" as="geometry" />
        </mxCell>
      </root>
    </mxGraphModel>
  </diagram>
  <diagram id="i8TA-xSyz4mvkA_WDlDY" name="Page-6">
    <mxGraphModel dx="1252" dy="594" grid="1" gridSize="10" guides="1" tooltips="1" connect="1" arrows="1" fold="1" page="1" pageScale="1" pageWidth="827" pageHeight="1169" math="0" shadow="0">
      <root>
        <mxCell id="0" />
        <mxCell id="1" parent="0" />
      </root>
    </mxGraphModel>
  </diagram>
</mxfile>
